<svg width="137" height="151" viewBox="0 0 137 151" fill="none" xmlns="http://www.w3.org/2000/svg">
<path fill-rule="evenodd" clip-rule="evenodd" d="M7.79843 0H69.0571V9.82168H7.79843V0ZM73.4853 31.9227V25.7831H76.8472V14.7389H0V25.7831H3.36197V126.452H0V136.261H76.8472V126.452H73.4853V119.077H102.095C108.341 119.077 113.615 113.773 113.615 106.871V66.6901C113.615 59.8057 118.575 54.0111 124.821 54.0111H125.596C131.842 54.0111 137 48.5254 137 41.6409V31.9228L73.4853 31.9227ZM6.658 126.47V25.783H70.1892V126.452H6.658V126.47ZM81.3134 46.6544H75.7431V40.5147H81.3134V46.6544ZM93.5582 46.6544H86.8837V40.5147H93.5582V46.6544ZM104.699 46.6544H98.0243V40.5147H104.699V46.6544ZM115.839 46.6544H110.269V40.5147H115.839V46.6544ZM81.3134 111.721H75.7431V104.346H81.3134V111.721ZM93.5582 111.721H87.9879V104.346H93.5582V111.721ZM104.699 111.721H99.1285V104.346H104.699V111.721ZM7.79843 141.178H69.0571V151H7.79843V141.178Z" fill="url(#paint0_linear_2_2)"/>
<defs>
<linearGradient id="paint0_linear_2_2" x1="68.5" y1="0" x2="68.5" y2="151" gradientUnits="userSpaceOnUse">
<stop stop-color="#FC3A3A"/>
<stop offset="1" stop-color="#E89332"/>
</linearGradient>
</defs>
</svg>
